<?xml version="1.0" encoding="utf-8"?>
<!-- Generator: Adobe Illustrator 21.0.2, SVG Export Plug-In . SVG Version: 6.00 Build 0)  -->
<svg version="1.1" id="Layer_1" xmlns="http://www.w3.org/2000/svg" xmlns:xlink="http://www.w3.org/1999/xlink" x="0px" y="0px"
	 viewBox="0 0 1280 1024" style="enable-background:new 0 0 1280 1024;" xml:space="preserve">
<style type="text/css">
	.st0{fill:#173B4D;}
</style>
<g>
	<rect x="0.3" y="512" class="st0" width="170.7" height="170.7"/>
	<rect x="171" y="512" class="st0" width="170.7" height="170.7"/>
	<rect x="342" y="0" class="st0" width="170.7" height="170.7"/>
	<rect x="683" y="853.3" class="st0" width="170.7" height="170.7"/>
	<rect x="683" y="682.7" class="st0" width="170.7" height="170.7"/>
	<rect x="853.6" y="853.3" class="st0" width="170.7" height="170.7"/>
	<rect x="1024.3" y="682.7" class="st0" width="170.7" height="170.7"/>
	<rect x="1195" y="682.7" class="st0" width="85" height="170.7"/>
	<path class="st0" d="M341.6,0H171c0,94.3-76.4,170.7-170.7,170.7v170.7C188.8,341.3,341.6,188.5,341.6,0z"/>
	<path class="st0" d="M683,682.7V512c-94.3,0-170.7-76.4-170.7-170.7H341.6C341.6,529.8,494.5,682.7,683,682.7z"/>
	<path class="st0" d="M0.3,1024H171c0-94.3,76.4-170.7,170.7-170.7V682.7C153.1,682.7,0.3,835.5,0.3,1024z"/>
	<path class="st0" d="M683,341.3V512c94.3,0,170.7,76.4,170.7,170.7h170.7C1024.3,494.2,871.5,341.3,683,341.3z"/>
	<path class="st0" d="M683,1024H512.3c0-94.3-76.4-170.7-170.7-170.7V682.7C530.1,682.7,683,835.5,683,1024z"/>
	<path class="st0" d="M1280.3,0h-170.7c0,94.3-76.4,170.7-170.7,170.7v170.7C1127.5,341.3,1280.3,188.5,1280.3,0z"/>
	<path class="st0" d="M597.7,0l170.7,0c0,94.3,76.4,170.7,170.7,170.7v170.7C750.5,341.3,597.7,188.5,597.7,0z"/>
</g>
</svg>
