<?xml version="1.0" encoding="utf-8"?>
<!-- Generator: Adobe Illustrator 21.0.2, SVG Export Plug-In . SVG Version: 6.00 Build 0)  -->
<svg version="1.1" id="Layer_1" xmlns="http://www.w3.org/2000/svg" xmlns:xlink="http://www.w3.org/1999/xlink" x="0px" y="0px"
	 viewBox="0 0 107.4 29.6" style="enable-background:new 0 0 107.4 29.6;" xml:space="preserve">
<style type="text/css">
	.st0{fill:#40C4E0;}
</style>
<g>
	<path class="st0" d="M32.4,0.6h-3.6v21.5c0,1.8-1.5,3.2-3.2,3.2c-1.8,0-3.2-1.5-3.2-3.2V0.6h-3.6v21.5c0,3.8,3.1,6.8,6.8,6.8
		c3.8,0,6.8-3.1,6.8-6.8V0.6z"/>
	<path class="st0" d="M44.8,17.5c3.6-0.2,6.4-3.2,6.4-6.8l0-3.2c0-3.6-2.8-6.6-6.4-6.8l-0.4,0h-6.9V29h3.6V17.5h3.4L44.8,17.5z
		 M41.2,13.9V4.2h3.2c1.8,0,3.2,1.5,3.2,3.2l0,3.2l0,0c0,1.8-1.5,3.2-3.2,3.2L41.2,13.9z"/>
	<path class="st0" d="M62.9,17.5c3.6-0.2,6.4-3.2,6.4-6.8l0-3.2c0-3.6-2.8-6.6-6.4-6.8l-0.4,0h-6.9V29h3.6V17.5h3.4L62.9,17.5z
		 M59.2,13.9V4.2h3.2c1.8,0,3.2,1.5,3.2,3.2l0,3.2l0,0c0,1.8-1.5,3.2-3.2,3.2L59.2,13.9z"/>
	<polygon class="st0" points="74.4,0.6 74.4,29 88.2,29 88.2,25.4 78,25.4 78,0.6 	"/>
	<polygon class="st0" points="107.4,4.2 107.4,0.6 93.6,0.6 93.6,29 107.4,29 107.4,25.4 97.2,25.4 97.2,16.4 105.9,16.4
		105.9,12.8 97.2,12.8 97.2,4.2 	"/>
	<path class="st0" d="M12.3,18.6l0.2,0.3c0.8,1.1,1.2,2.4,1.2,3.8c0,3.8-3.1,6.8-6.8,6.8c-3.4,0-6.3-2.6-6.8-5.9h3.7
		C4.2,25,5.4,26,6.8,26c1.8,0,3.2-1.5,3.2-3.2c0-0.7-0.2-1.4-0.7-2l-8.1-9.8l-0.2-0.3C0.4,9.5,0,8.2,0,6.8C0,3.1,3.1,0,6.8,0
		c3.4,0,6.3,2.6,6.8,5.9H9.9C9.5,4.6,8.3,3.6,6.8,3.6c-1.8,0-3.2,1.5-3.2,3.2c0,0.7,0.2,1.4,0.7,2L12.3,18.6z"/>
</g>
</svg>
